<svg xmlns="http://www.w3.org/2000/svg" version="1.1" xmlns:xlink="http://www.w3.org/1999/xlink" xmlns:svgjs="http://svgjs.com/svgjs" width="512" height="512" x="0" y="0" viewBox="0 0 512 512" style="enable-background:new 0 0 512 512" xml:space="preserve" class=""><g><g><g><circle cx="294.75" cy="119.485" fill="#fff5f5" r="64.681" data-original="#fff5f5" class=""></circle><ellipse cx="145.485" cy="99.583" fill="#fff5f5" rx="84.583" ry="84.583" transform="matrix(.707 -.707 .707 .707 -27.804 132.041)" data-original="#fff5f5" class=""></ellipse><path d="m294.75 39.804c-22.065 0-42.059 9.019-56.502 23.558-5.194-13.255-13.162-25.124-23.169-34.917l-10.001 13.039 10.001 44.349v29.25l-10.001 59.083 10.001 25.001h79.671c43.936 0 79.682-35.745 79.682-79.681 0-43.937-35.746-79.682-79.682-79.682zm0 129.363c-27.395 0-49.682-22.287-49.682-49.681 0-27.395 22.287-49.681 49.682-49.681s49.682 22.287 49.682 49.681-22.287 49.681-49.682 49.681z" fill="#fdd278" data-original="#fdd278" class=""></path><path d="m145.485 0c-54.91 0-99.583 44.673-99.583 99.583 0 54.911 44.673 99.583 99.583 99.583h69.594v-170.72c-17.966-17.581-42.53-28.446-69.594-28.446zm0 169.167c-38.368 0-69.583-31.215-69.583-69.583 0-38.369 31.215-69.584 69.583-69.584s69.583 31.215 69.583 69.583c0 38.369-31.214 69.584-69.583 69.584z" fill="#ffdf8e" data-original="#ffdf8e" class=""></path></g><g><path d="m230.079 357.827-15-.001-12.412 38.7 12.412 115.474h15v-101.703l70.88 101.703h36.568z" fill="#fdd278" data-original="#fdd278" class=""></path><path d="m200.079 357.826-107.449 154.174h36.568l70.881-101.705v101.705h15v-154.174z" fill="#ffdf8e" data-original="#ffdf8e" class=""></path></g><path d="m377.667 221.15v135.004l89.214 27.039v-189.082z" fill="#cde1e6" data-original="#cde1e6"></path><g><path d="m385.038 169.167h-169.959l-12.412 118.833 12.412 120.138h169.959z" fill="#28485e" data-original="#28485e"></path><path d="m45.119 169.167h169.96v238.971h-169.96z" fill="#44799b" data-original="#44799b" class=""></path></g><path d="m277.334 273.652h-62.255l-12.412 14.348 12.412 15.652h62.255z" fill="#e1ebf0" data-original="#e1ebf0"></path><path d="m152.824 273.652h62.254v30h-62.254z" fill="#fff5f5" data-original="#fff5f5" class=""></path></g></g></svg>